HIERARCHY
ROOT Hip
{
    OFFSET 0.0 0.0 0.0
    CHANNELS 6 Xposition Yposition Zposition Zrotation Xrotation Yrotation
    JOINT RightHip
    {
        OFFSET -0.5949747468305833 0.0 0.0
        CHANNELS 3 Zrotation Xrotation Yrotation
        JOINT RightKnee
        {
            OFFSET 0.0 0.0 -0.6147815070493501
            CHANNELS 3 Zrotation Xrotation Yrotation
            JOINT RightAnkle
            {
                OFFSET 0.0 0.0 -0.4367439337490058
                CHANNELS 3 Zrotation Xrotation Yrotation
                End Site
                {
                    OFFSET 0.0 -0.17469757349960233 0.0
                }
            }
        }
    }
    JOINT LeftHip
    {
        OFFSET 0.5949747468305833 0.0 0.0
        CHANNELS 3 Zrotation Xrotation Yrotation
        JOINT LeftKnee
        {
            OFFSET 0.0 0.0 -0.6147815070493501
            CHANNELS 3 Zrotation Xrotation Yrotation
            JOINT LeftAnkle
            {
                OFFSET 0.0 0.0 -0.4367439337490058
                CHANNELS 3 Zrotation Xrotation Yrotation
                End Site
                {
                    OFFSET 0.0 -0.17469757349960233 0.0
                }
            }
        }
    }
    JOINT Spine
    {
        OFFSET 0.0 0.0 0.9899494936611667
        CHANNELS 3 Zrotation Xrotation Yrotation
        JOINT Thorax
        {
            OFFSET 0.0 0.0 0.7008920048172758
            CHANNELS 3 Zrotation Xrotation Yrotation
            JOINT Neck
            {
                OFFSET 0.0 0.0 0.3481908611026159
                CHANNELS 3 Zrotation Xrotation Yrotation
                End Site
                {
                    OFFSET 0.0 0.0 0.13927634444104633
                }
            }
            JOINT LeftShoulder
            {
                OFFSET 0.7124305878374692 0.0 0.0
                CHANNELS 3 Zrotation Xrotation Yrotation
                JOINT LeftElbow
                {
                    OFFSET 0.33322858510271786 0.0 0.0
                    CHANNELS 3 Zrotation Xrotation Yrotation
                    JOINT LeftWrist
                    {
                        OFFSET 0.3414213562373094 0.0 0.0
                        CHANNELS 3 Zrotation Xrotation Yrotation
                        End Site
                        {
                            OFFSET 0.13656854249492384 0.0 0.0
                        }
                    }
                }
            }
            JOINT RightShoulder
            {
                OFFSET -0.7124305878374692 0.0 0.0
                CHANNELS 3 Zrotation Xrotation Yrotation
                JOINT RightElbow
                {
                    OFFSET -0.33322858510271786 0.0 0.0
                    CHANNELS 3 Zrotation Xrotation Yrotation
                    JOINT RightWrist
                    {
                        OFFSET -0.3414213562373094 0.0 0.0
                        CHANNELS 3 Zrotation Xrotation Yrotation
                        End Site
                        {
                            OFFSET -0.13656854249492384 0.0 0.0
                        }
                    }
                }
            }
        }
    }
}
MOTION
Frames: 5
Frame Time: 0.03333333333333333
0.0 0.0 1.7 -90.0 0.0 135.0 -180.0 1.2171455823273135e-15 45.00000000000001 -3.4426075798195696e-15 -8.311189909128823e-15 45.00000000000001 6.3611093629270335e-15 0.0 0.0 -180.0 6.457199933851638e-16 -105.94539590092286 1.2914399867703279e-15 6.993698818898917e-15 -74.05460409907715 6.3611093629270335e-15 0.0 0.0 178.8426079018321 -6.9101798544061515 -135.27322429739496 -49.58170576164497 -5.774897712508794e-15 -2.6672586558447325e-15 4.9198407457872575 -27.524273675169912 69.50612019837955 -120.13052222320378 63.44817118102842 -128.6631162815349 -73.22134511903964 4.4498530141330235e-15 -6.562501932725291e-16 -3.1805546814635168e-15 0.0 0.0 -2.980316375141623 -29.91597001280912 0.0 0.0 0.0 0.0 0.0 0.0 0.0
0.0 0.0 1.7 -90.0 0.0 135.0 -180.0 1.2171455823273135e-15 45.00000000000001 0.0 0.0 46.17446095158715 0.0 0.0 0.0 -180.0 6.457199933851638e-16 -105.94539590092286 -3.77614021275574e-15 -5.119030906404748e-15 -72.82994378979257 0.0 0.0 6.3611093629270335e-15 178.844891131358 -6.896681143335559 -135.27215315501243 -49.98203814741315 -7.109252906765227e-15 1.9535484777104913e-16 5.05727983554846 -27.456798432842692 69.36465063188257 -119.38319483798854 62.988021695318096 -130.31955594640212 -73.47299257612855 -5.09776000455752e-15 -3.8048068627791966e-15 -1.1927080055488188e-15 0.0 0.0 -2.9951285141702115 -29.916299917874696 -2.969408445121695e-15 0.0 0.0 0.0 0.0 0.0 0.0
0.0 0.0 1.7 -90.0 0.0 135.0 -180.0 1.2171455823273135e-15 45.00000000000001 -9.102305176894397e-15 -1.0930077863504509e-14 47.296465356522006 0.0 0.0 0.0 -180.0 6.457199933851638e-16 -105.94539590092286 -0.0 0.0 -71.5581337468251 6.3611093629270335e-15 0.0 0.0 178.85173183100736 -6.856233488875081 -135.26895633621072 -50.282351819725655 7.431924444861859e-15 -1.583582405559289e-14 5.156377017991838 -27.44943999860238 69.211120265014 -118.94309557132974 62.395767193459186 -131.82864630085496 -73.86602627544998 -5.409041845668404e-15 1.9023755090915955e-15 -1.987846675914698e-15 2.758691436281349e-32 -1.5902773407317584e-15 -2.993339602723762 -29.91728449565164 -8.911712350991744e-15 0.0 0.0 0.0 0.0 0.0 0.0
0.0 0.0 1.7 -90.0 0.0 135.0 -180.0 1.2171455823273135e-15 45.00000000000001 1.4802947179766813e-14 1.3620201102194254e-14 48.36445961426905 8.827812596100317e-32 3.1805546814635168e-15 -3.1805546814635168e-15 -180.0 6.457199933851638e-16 -105.94539590092286 6.261110258257856e-15 3.3731496769096544e-15 -70.24309678117609 6.3611093629270335e-15 0.0 0.0 178.8631030686938 -6.788982300287952 -135.2636834217098 -50.48033199570305 -5.075688012592151e-15 -4.1509138206413285e-15 5.215604557335386 -27.50353626951427 69.04489982860557 -118.82036634082812 61.67746727417113 -133.19149731258875 -74.40192127984943 2.0526239631386767e-15 2.5563467004378687e-15 -2.782985346280577e-15 -3.862168010793889e-32 1.5902773407317584e-15 -2.9748781129493382 -29.918908410828138 2.972505161657397e-15 0.0 0.0 0.0 0.0 0.0 0.0
0.0 0.0 1.7 -90.0 0.0 135.0 -180.0 1.2171455823273135e-15 45.00000000000001 3.122678178623154e-15 8.436605101993736e-15 49.37750168202111 0.0 0.0 0.0 -180.0 6.457199933851638e-16 -105.94539590092286 9.750128568641818e-16 7.044784619691861e-15 -68.88969586019145 6.3611093629270335e-15 -3.1805546814635168e-15 -3.1805546814635168e-15 178.87896007315993 -6.6951698311888865 -135.2564162344317 -50.573269383225394 6.272211614054052e-15 -5.830938180209663e-15 5.232619622550722 -27.621041141966675 68.86504754733573 -119.02346893169586 60.83779589147673 -134.41252624640677 -75.08414351145582 -5.528275367345004e-15 -3.2456323413220494e-15 1.5902773407317584e-15 0.0 0.0 -2.93979282046888 -29.92114636008086 -5.9504145596387454e-15 0.0 0.0 0.0 0.0 0.0 0.0
